<?xml version="1.0" encoding="iso-8859-1"?>
<!-- Generator: Adobe Illustrator 18.0.0, SVG Export Plug-In . SVG Version: 6.00 Build 0)  -->
<!DOCTYPE svg PUBLIC "-//W3C//DTD SVG 1.1//EN" "http://www.w3.org/Graphics/SVG/1.1/DTD/svg11.dtd">
<svg version="1.1" id="Capa_1" xmlns="http://www.w3.org/2000/svg" xmlns:xlink="http://www.w3.org/1999/xlink" x="0px" y="0px"
	 viewBox="0 0 314.652 314.652" style="enable-background:new 0 0 314.652 314.652;" xml:space="preserve">
<g>
	<path d="M157.326,0C70.576,0,0,70.576,0,157.326s70.576,157.326,157.326,157.326s157.326-70.576,157.326-157.326
		S244.076,0,157.326,0z M157.326,296.652C80.502,296.652,18,234.15,18,157.326S80.502,18,157.326,18s139.326,62.502,139.326,139.326
		S234.15,296.652,157.326,296.652z"/>
	<path d="M214.618,80.326H100.034c-10.477,0-19,8.523-19,19v116c0,10.477,8.523,19,19,19h114.584c10.477,0,19-8.523,19-19v-116
		C233.618,88.85,225.095,80.326,214.618,80.326z M215.618,215.326c0,0.552-0.448,1-1,1H100.034c-0.552,0-1-0.448-1-1v-116
		c0-0.552,0.448-1,1-1h114.584c0.552,0,1,0.448,1,1V215.326z"/>
	<rect x="183.583" y="111.812" width="20.615" height="18.911"/>
	<circle cx="157.326" cy="164.946" r="20.324"/>
	<path d="M189.745,164.856c0,17.904-14.514,32.418-32.418,32.418s-32.418-14.514-32.418-32.418l0.044-14.445h-14.497v53.761h93.743
		v-53.761H189.82L189.745,164.856z"/>
</g>
<g>
</g>
<g>
</g>
<g>
</g>
<g>
</g>
<g>
</g>
<g>
</g>
<g>
</g>
<g>
</g>
<g>
</g>
<g>
</g>
<g>
</g>
<g>
</g>
<g>
</g>
<g>
</g>
<g>
</g>
</svg>
